# xmcd
# 
# Track frame offsets:
#     150
#     18962
#     38987
#     56538
#     71500
#     88150
#     108138
#     122464
#     142262
#     159100
#     175900
#     195887
#     212687
#     235412
#     257312
#     277000
# 
# Disc length: 3941
# 
# Revision: 9
# Processed by: cddbd v1.5.2PL0 Copyright (c) Steve Scherf et al.
# Submitted via: BonkEnc v1.0
# 
DISCID=d40f6310
DTITLE=群星 - 女人心事 Disc 2
DYEAR=2005
DGENRE=Rock
TTITLE0=飛女正傳
TTITLE1=約定
TTITLE2=終身學習
TTITLE3=分分鐘需要你
TTITLE4=深藍
TTITLE5=捨不得你
TTITLE6=爛泥
TTITLE7=愛你愛到
TTITLE8=活得比你好
TTITLE9=絕
TTITLE10=棉胎
TTITLE11=牽掛
TTITLE12=緣份的天空
TTITLE13=細水長流
TTITLE14=激情
TTITLE15=但願你明白
EXTD=YEAR: 2005
EXTT0=
EXTT1=
EXTT2=
EXTT3=
EXTT4=
EXTT5=
EXTT6=
EXTT7=
EXTT8=
EXTT9=
EXTT10=
EXTT11=
EXTT12=
EXTT13=
EXTT14=
EXTT15=
PLAYORDER=
